<?xml version="1.0" encoding="UTF-8" standalone="no"?>
<!-- Generator: Adobe Illustrator 16.0.0, SVG Export Plug-In . SVG Version: 6.00 Build 0)  -->

<svg
   xmlns:dc="http://purl.org/dc/elements/1.1/"
   xmlns:cc="http://creativecommons.org/ns#"
   xmlns:rdf="http://www.w3.org/1999/02/22-rdf-syntax-ns#"
   xmlns:svg="http://www.w3.org/2000/svg"
   xmlns="http://www.w3.org/2000/svg"
   xmlns:sodipodi="http://sodipodi.sourceforge.net/DTD/sodipodi-0.dtd"
   xmlns:inkscape="http://www.inkscape.org/namespaces/inkscape"
   version="1.1"
   id="Capa_1"
   x="0px"
   y="0px"
   width="512px"
   height="512px"
   viewBox="0 0 512 512"
   style="enable-background:new 0 0 512 512;"
   xml:space="preserve"
   inkscape:version="0.91 r13725"
   sodipodi:docname="five.svg"><metadata
     id="metadata45"><rdf:RDF><cc:Work
         rdf:about=""><dc:format>image/svg+xml</dc:format><dc:type
           rdf:resource="http://purl.org/dc/dcmitype/StillImage" /></cc:Work></rdf:RDF></metadata><defs
     id="defs43" /><sodipodi:namedview
     pagecolor="#ffffff"
     bordercolor="#666666"
     borderopacity="1"
     objecttolerance="10"
     gridtolerance="10"
     guidetolerance="10"
     inkscape:pageopacity="0"
     inkscape:pageshadow="2"
     inkscape:window-width="1366"
     inkscape:window-height="746"
     id="namedview41"
     showgrid="false"
     inkscape:zoom="0.4609375"
     inkscape:cx="256"
     inkscape:cy="256"
     inkscape:window-x="-8"
     inkscape:window-y="-8"
     inkscape:window-maximized="1"
     inkscape:current-layer="Capa_1" /><g
     id="g3"><path
       d="M256,0C114.609,0,0,114.609,0,256c0,141.391,114.609,256,256,256c141.391,0,256-114.609,256-256   C512,114.609,397.391,0,256,0z M256,472c-119.297,0-216-96.703-216-216S136.703,40,256,40s216,96.703,216,216S375.297,472,256,472z   "
       id="path5" /><g
       id="g7"><path
         d="M183.219,263.844L198.453,128h124.062v29.031H221.328L214.5,227.14l1.219,0.484c5.844-5.641,12.719-9.656,20.656-12.031    c7.875-2.375,15.719-3.594,23.469-3.594c10.969,0,21.109,2.234,30.5,6.719c9.266,4.406,17.359,10.531,24.078,18.281    c6.734,7.75,12.078,16.891,15.906,27.5C334.125,275.03,336,286.28,336,298.232c0,11.017-1.656,21.578-5.031,31.984    c-3.531,10.25-8.656,19.328-15.391,27.5c-6.734,8-15.297,14.328-25.656,19.078c-10.406,4.75-22.578,7.203-36.484,7.203    c-19.531,0-36.375-6.188-50.531-18.281c-14.219-12.234-23.188-30.172-26.906-53.688h32.516c2.922,13.453,8.453,23.969,16.641,31.5    c8.172,7.531,17.719,11.453,28.656,11.453c7.5,0,14.329-1.5,20.422-4.5c6.219-2.969,11.453-6.984,15.906-12.017    c4.328-5.155,7.828-11.219,10.155-18.422c2.453-7.078,3.595-14.733,3.595-22.766c0-8.298-1.392-15.859-4.345-22.767    c-3.062-6.797-6.905-12.733-11.858-17.641c-4.922-4.891-10.625-8.75-17.031-11.625C264.234,242.469,257.688,241,251,241    c-7.469,0-14.719,1.844-21.688,5.375c-6.938,3.609-12.812,9.375-17.625,17.469H183.219z"
         id="path9" /></g></g><g
     id="g11" /><g
     id="g13" /><g
     id="g15" /><g
     id="g17" /><g
     id="g19" /><g
     id="g21" /><g
     id="g23" /><g
     id="g25" /><g
     id="g27" /><g
     id="g29" /><g
     id="g31" /><g
     id="g33" /><g
     id="g35" /><g
     id="g37" /><g
     id="g39" /><path
     style="opacity:0.98999999;fill:#ffffff;fill-opacity:1;stroke:#ffffff;stroke-width:2.82033896;stroke-linecap:square;stroke-linejoin:bevel;stroke-miterlimit:4;stroke-dasharray:none;stroke-dashoffset:0;stroke-opacity:1"
     d="M 229.09168,469.17688 C 148.04403,458.77701 79.146568,402.52088 52.770007,325.20678 26.773731,249.00735 45.775049,164.80044 101.9661,107.18763 129.58523,78.869686 158.96709,60.920463 196.79822,49.255187 214.61401,43.761668 218.49658,43.376106 256,43.376106 c 37.50341,0 41.386,0.385562 59.20178,5.879081 37.71446,11.629298 67.0738,29.539324 94.83212,57.850273 83.00286,84.65533 80.37102,222.0176 -5.82255,303.89304 -35.24408,33.47844 -75.52067,52.40016 -124.29004,58.39078 -20.82594,2.55817 -29.5214,2.52184 -50.82963,-0.2124 z m 62.62197,-92.78433 c 17.04148,-8.38949 31.60088,-23.92125 38.41968,-40.98562 4.14049,-10.36176 4.94284,-16.41948 4.94284,-37.31879 0,-20.95109 -0.79794,-26.94702 -4.97938,-37.41649 -6.56844,-16.44596 -23.21534,-34.47846 -38.97253,-42.21636 -10.73839,-5.27331 -14.88575,-6.06207 -31.87488,-6.06207 -16.65816,0 -21.20453,0.82859 -30.91525,5.63437 l -11.38498,5.63436 -0.0108,-5.63436 c -0.006,-3.09891 1.1503,-18.08183 2.56924,-33.29539 l 2.57988,-27.66101 50.5834,0 50.58341,0 0,-15.18644 0,-15.18644 -62.91526,0 c -34.60339,0 -62.91525,0.38722 -62.91525,0.86049 0,0.47327 -3.41695,31.32673 -7.59322,68.56323 -4.17627,37.23651 -7.59322,68.08997 -7.59322,68.56325 0,0.47325 6.36219,0.86048 14.13819,0.86048 13.87275,0 14.31063,-0.17941 23.32204,-9.55059 18.81018,-19.56137 47.5598,-18.13032 68.19253,3.39438 10.04208,10.47621 14.39594,22.22993 14.33492,38.69859 -0.13473,36.33362 -28.5165,62.51077 -58.9039,54.32829 -12.70081,-3.41996 -26.86288,-17.72311 -30.82082,-31.12784 l -3.00684,-10.18351 -17.15958,0 -17.15957,0 1.38669,8.67187 c 3.42745,21.43415 17.82674,43.22997 35.34021,53.49353 15.9124,9.32529 26.07515,11.66201 46.86915,10.77666 15.99672,-0.68111 21.26445,-1.90509 32.94334,-7.65459 z"
     id="path4173"
     inkscape:connector-curvature="0" /></svg>