<?xml version="1.0" encoding="UTF-8" standalone="no"?>
<!-- Generator: Adobe Illustrator 16.0.0, SVG Export Plug-In . SVG Version: 6.00 Build 0)  -->

<svg
   xmlns:dc="http://purl.org/dc/elements/1.1/"
   xmlns:cc="http://creativecommons.org/ns#"
   xmlns:rdf="http://www.w3.org/1999/02/22-rdf-syntax-ns#"
   xmlns:svg="http://www.w3.org/2000/svg"
   xmlns="http://www.w3.org/2000/svg"
   xmlns:sodipodi="http://sodipodi.sourceforge.net/DTD/sodipodi-0.dtd"
   xmlns:inkscape="http://www.inkscape.org/namespaces/inkscape"
   version="1.1"
   id="Capa_1"
   x="0px"
   y="0px"
   width="512px"
   height="512px"
   viewBox="0 0 512 512"
   style="enable-background:new 0 0 512 512;"
   xml:space="preserve"
   inkscape:version="0.91 r13725"
   sodipodi:docname="four.svg"><metadata
     id="metadata45"><rdf:RDF><cc:Work
         rdf:about=""><dc:format>image/svg+xml</dc:format><dc:type
           rdf:resource="http://purl.org/dc/dcmitype/StillImage" /></cc:Work></rdf:RDF></metadata><defs
     id="defs43" /><sodipodi:namedview
     pagecolor="#ffffff"
     bordercolor="#666666"
     borderopacity="1"
     objecttolerance="10"
     gridtolerance="10"
     guidetolerance="10"
     inkscape:pageopacity="0"
     inkscape:pageshadow="2"
     inkscape:window-width="1366"
     inkscape:window-height="746"
     id="namedview41"
     showgrid="false"
     inkscape:zoom="0.4609375"
     inkscape:cx="-483.79662"
     inkscape:cy="256"
     inkscape:window-x="-8"
     inkscape:window-y="-8"
     inkscape:window-maximized="1"
     inkscape:current-layer="Capa_1" /><g
     id="g3"><path
       d="M256,0C114.609,0,0,114.609,0,256c0,141.391,114.609,256,256,256c141.391,0,256-114.609,256-256   C512,114.609,397.391,0,256,0z M256,472c-119.297,0-216-96.703-216-216S136.703,40,256,40s216,96.703,216,216S375.297,472,256,472z   "
       id="path5" /><g
       id="g7"><path
         d="M274.203,384v-62.5H176v-37.203L274.203,128H303.5v164.484H336V321.5h-32.5V384H274.203z M202.438,292.484h71.766V176.969    L202.438,292.484z"
         id="path9" /></g></g><g
     id="g11" /><g
     id="g13" /><g
     id="g15" /><g
     id="g17" /><g
     id="g19" /><g
     id="g21" /><g
     id="g23" /><g
     id="g25" /><g
     id="g27" /><g
     id="g29" /><g
     id="g31" /><g
     id="g33" /><g
     id="g35" /><g
     id="g37" /><g
     id="g39" /><path
     style="opacity:0.98999999;fill:#ffffff;fill-opacity:1;stroke:#ffffff;stroke-width:2.82033896;stroke-linecap:square;stroke-linejoin:bevel;stroke-miterlimit:4;stroke-dasharray:none;stroke-dashoffset:0;stroke-opacity:1"
     d="M 229.09168,469.17688 C 148.04403,458.77701 79.146568,402.52088 52.770007,325.20678 26.773731,249.00735 45.775049,164.80044 101.9661,107.18763 129.58523,78.869686 158.96709,60.920463 196.79822,49.255187 214.61401,43.761668 218.49658,43.376106 256,43.376106 c 37.50341,0 41.386,0.385562 59.20178,5.879081 37.71446,11.629298 67.0738,29.539324 94.83212,57.850273 83.00286,84.65533 80.37102,222.0176 -5.82255,303.89304 -35.24408,33.47844 -75.52067,52.40016 -124.29004,58.39078 -20.82594,2.55817 -29.5214,2.52184 -50.82963,-0.2124 z m 74.63713,-115.76671 0,-31.45763 16.27119,0 16.27119,0 0,-15.18644 0,-15.18644 -16.27119,0 -16.27119,0 0,-82.44068 0,-82.44067 -15.00049,0 -15.00049,0 -48.99951,78.04386 -48.99951,78.04387 0,19.58326 0,19.58324 48.81356,0 48.81356,0 0,31.45763 0,31.45763 15.18644,0 15.18644,0 0,-31.45763 z"
     id="path4173"
     inkscape:connector-curvature="0" /><path
     style="opacity:0.98999999;fill:#ffffff;fill-opacity:1;stroke:#ffffff;stroke-width:2.82033896;stroke-linecap:square;stroke-linejoin:bevel;stroke-miterlimit:4;stroke-dasharray:none;stroke-dashoffset:0;stroke-opacity:1"
     d="M 221.1788,468.63104 C 149.28705,454.8485 93.598969,413.23809 62.665951,350.18941 52.196864,328.85098 46.745751,310.43226 42.84579,283.21922 39.830423,262.17867 39.700097,255.13129 41.951876,234.88053 51.680342,147.39025 108.80936,77.787919 194.16949,49.428358 211.93887,43.524762 214.1897,43.301733 256,43.301733 c 41.81029,0 44.06114,0.223029 61.83051,6.126625 85.3632,28.360583 142.64578,98.087712 152.08593,185.126392 6.14138,56.62371 -12.05931,115.54041 -49.451,160.07576 -27.78737,33.09616 -68.71111,58.90916 -110.22815,69.52736 -26.89371,6.87822 -66.2122,8.85307 -89.05849,4.47317 z m 81.46527,-115.22087 0,-31.45763 16.27118,0 16.27119,0 0,-15.18644 0,-15.18644 -16.27119,0 -16.27118,0 0,-82.5398 0,-82.5398 -14.39811,0.64149 -14.39814,0.6415 -48.44834,77.01695 -48.44836,77.01695 -0.0688,20.0678 -0.0688,20.06779 48.81356,0 48.81356,0 0,31.45763 0,31.45763 14.10169,0 14.1017,0 0,-31.45763 z"
     id="path4154"
     inkscape:connector-curvature="0" /><path
     style="opacity:0.98999999;fill:#ffffff;fill-opacity:1;stroke:#ffffff;stroke-width:2.82033896;stroke-linecap:square;stroke-linejoin:bevel;stroke-miterlimit:4;stroke-dasharray:none;stroke-dashoffset:0;stroke-opacity:1"
     d="m 236.88668,238.96949 c 17.95547,-28.93559 33.50647,-53.53763 34.55778,-54.67118 1.10625,-1.19281 1.91147,20.96945 1.91147,52.61016 l 0,54.67119 -34.55778,0 -34.55778,0 32.64631,-52.61017 z"
     id="path4153"
     inkscape:connector-curvature="0" /></svg>