<?xml version="1.0" encoding="UTF-8" standalone="no"?>
<!-- Generator: Adobe Illustrator 16.0.0, SVG Export Plug-In . SVG Version: 6.00 Build 0)  -->

<svg
   xmlns:dc="http://purl.org/dc/elements/1.1/"
   xmlns:cc="http://creativecommons.org/ns#"
   xmlns:rdf="http://www.w3.org/1999/02/22-rdf-syntax-ns#"
   xmlns:svg="http://www.w3.org/2000/svg"
   xmlns="http://www.w3.org/2000/svg"
   xmlns:sodipodi="http://sodipodi.sourceforge.net/DTD/sodipodi-0.dtd"
   xmlns:inkscape="http://www.inkscape.org/namespaces/inkscape"
   version="1.1"
   id="Capa_1"
   x="0px"
   y="0px"
   width="512px"
   height="512px"
   viewBox="0 0 512 512"
   style="enable-background:new 0 0 512 512;"
   xml:space="preserve"
   inkscape:version="0.91 r13725"
   sodipodi:docname="one.svg"><metadata
     id="metadata45"><rdf:RDF><cc:Work
         rdf:about=""><dc:format>image/svg+xml</dc:format><dc:type
           rdf:resource="http://purl.org/dc/dcmitype/StillImage" /><dc:title /></cc:Work></rdf:RDF></metadata><defs
     id="defs43" /><sodipodi:namedview
     pagecolor="#fffdfd"
     bordercolor="#fffcfc"
     borderopacity="1"
     objecttolerance="10"
     gridtolerance="10"
     guidetolerance="10"
     inkscape:pageopacity="1"
     inkscape:pageshadow="2"
     inkscape:window-width="1366"
     inkscape:window-height="746"
     id="namedview41"
     showgrid="false"
     inkscape:zoom="0.4609375"
     inkscape:cx="-113.89831"
     inkscape:cy="256"
     inkscape:window-x="-8"
     inkscape:window-y="-8"
     inkscape:window-maximized="1"
     inkscape:current-layer="Capa_1"
     borderlayer="false" /><g
     id="g3"><path
       d="M256,0C114.609,0,0,114.609,0,256c0,141.391,114.609,256,256,256c141.391,0,256-114.609,256-256   C512,114.609,397.391,0,256,0z M256,472c-119.297,0-216-96.703-216-216S136.703,40,256,40s216,96.703,216,216S375.297,472,256,472z   "
       id="path5" /><g
       id="g7"><path
         d="M249.703,201.25H188v-25h19.312c6.859,0,13.422-1.219,19.5-3.594c6.172-2.375,11.438-5.641,15.797-9.797    c4.358-4.203,7.922-9.25,10.547-15.234c2.734-5.906,4.047-12.5,4.047-19.625H284v256h-34.297V201.25z"
         id="path9" /></g></g><g
     id="g11" /><g
     id="g13" /><g
     id="g15" /><g
     id="g17" /><g
     id="g19" /><g
     id="g21" /><g
     id="g23" /><g
     id="g25" /><g
     id="g27" /><g
     id="g29" /><g
     id="g31" /><g
     id="g33" /><g
     id="g35" /><g
     id="g37" /><g
     id="g39" /><path
     style="opacity:0.98999999;fill:#ffffff;fill-opacity:1;stroke:#faf5ec;stroke-width:2.82033896;stroke-linecap:square;stroke-linejoin:bevel;stroke-miterlimit:4;stroke-dasharray:none;stroke-dashoffset:0;stroke-opacity:1"
     d="M 228.78413,469.40746 C 157.50741,459.45986 95.389998,414.91532 64.000445,351.24068 39.985735,302.52611 34.839616,250.32723 48.944137,198.51925 67.553349,130.16486 124.76235,71.491909 193.08475,50.690152 c 24.7267,-7.52841 38.82607,-9.12622 70.86661,-8.030956 44.9293,1.53585 75.12133,11.022301 110.82453,34.821467 53.7506,35.829287 88.1521,93.043737 94.81604,157.692217 4.09316,39.70886 -3.16321,78.73005 -21.58397,116.0678 -29.09225,58.96819 -83.68158,101.35918 -148.20658,115.08883 -19.29237,4.10505 -53.14499,5.57226 -71.01725,3.07795 z m 56.50401,-213.62441 0,-129.08474 -14.06037,0 c -13.57577,0 -14.10534,0.20562 -15.36579,5.9661 -6.45775,29.51302 -21.66846,41.76271 -51.85765,41.76271 l -16.34331,0 0,14.10169 0,14.1017 30.37288,0 30.37288,0 0,91.11864 0,91.11865 18.44068,0 18.44068,0 0,-129.08475 z"
     id="path4161"
     inkscape:connector-curvature="0" /><path
     style="opacity:0.98999999;fill:#ffffff;fill-opacity:1;stroke:#faf5ec;stroke-width:2.82033896;stroke-linecap:square;stroke-linejoin:bevel;stroke-miterlimit:4;stroke-dasharray:none;stroke-dashoffset:0;stroke-opacity:1"
     d="M 214.77966,466.41788 C 133.68771,447.76385 73.544029,391.60739 49.601134,312.18983 44.252598,294.44897 43.705476,289.39271 43.614907,256.8678 43.529125,226.06192 44.212749,218.50036 48.518275,202.6316 69.169642,126.51748 131.76087,65.816843 208.84109,47.151409 c 19.02389,-4.606749 71.24354,-4.576697 92.71823,0.05336 47.64056,10.271549 89.68155,36.223742 120.26379,74.239641 68.9516,85.71181 62.57213,207.03281 -15.00238,285.30635 -26.71256,26.95327 -59.98555,46.33655 -96.58344,56.26492 -22.36421,6.06703 -75.62167,7.96518 -95.45763,3.4022 z m 70.50848,-210.63483 0,-129.08474 -13.99084,0 -13.99083,0 -3.90747,12.44995 c -5.52109,17.59125 -17.53573,29.63988 -32.76002,32.8527 -6.32314,1.33439 -16.32992,2.42616 -22.23729,2.42616 l -10.74067,0 0,14.04047 0,14.04047 29.83051,0.6036 29.8305,0.60359 0.56618,90.57628 0.56617,90.57627 18.41688,0 18.41688,0 0,-129.08475 z"
     id="path4163"
     inkscape:connector-curvature="0" /></svg>