<?xml version="1.0" encoding="UTF-8" standalone="no"?>
<!-- Generator: Adobe Illustrator 16.0.0, SVG Export Plug-In . SVG Version: 6.00 Build 0)  -->

<svg
   xmlns:dc="http://purl.org/dc/elements/1.1/"
   xmlns:cc="http://creativecommons.org/ns#"
   xmlns:rdf="http://www.w3.org/1999/02/22-rdf-syntax-ns#"
   xmlns:svg="http://www.w3.org/2000/svg"
   xmlns="http://www.w3.org/2000/svg"
   xmlns:sodipodi="http://sodipodi.sourceforge.net/DTD/sodipodi-0.dtd"
   xmlns:inkscape="http://www.inkscape.org/namespaces/inkscape"
   version="1.1"
   id="Capa_1"
   x="0px"
   y="0px"
   width="512px"
   height="512px"
   viewBox="0 0 512 512"
   style="enable-background:new 0 0 512 512;"
   xml:space="preserve"
   inkscape:version="0.91 r13725"
   sodipodi:docname="six.svg"><metadata
     id="metadata45"><rdf:RDF><cc:Work
         rdf:about=""><dc:format>image/svg+xml</dc:format><dc:type
           rdf:resource="http://purl.org/dc/dcmitype/StillImage" /></cc:Work></rdf:RDF></metadata><defs
     id="defs43" /><sodipodi:namedview
     pagecolor="#ffffff"
     bordercolor="#666666"
     borderopacity="1"
     objecttolerance="10"
     gridtolerance="10"
     guidetolerance="10"
     inkscape:pageopacity="0"
     inkscape:pageshadow="2"
     inkscape:window-width="1366"
     inkscape:window-height="746"
     id="namedview41"
     showgrid="false"
     inkscape:zoom="0.4609375"
     inkscape:cx="-113.89831"
     inkscape:cy="256"
     inkscape:window-x="-8"
     inkscape:window-y="-8"
     inkscape:window-maximized="1"
     inkscape:current-layer="Capa_1" /><g
     id="g3"><path
       d="M256,0C114.609,0,0,114.609,0,256c0,141.391,114.609,256,256,256c141.391,0,256-114.609,256-256   C512,114.609,397.391,0,256,0z M256,472c-119.297,0-216-96.703-216-216S136.703,40,256,40s216,96.703,216,216S375.297,472,256,472z   "
       id="path5" /><g
       id="g7"><path
         d="M302.922,193.656c0-4.406-1-8.797-3.297-13.188c-2.156-4.438-5.141-8.375-8.688-11.938    c-3.547-3.531-7.938-6.375-13.047-8.562c-5.109-2.219-10.517-3.344-16.281-3.344c-10.281,0-18.517,2.516-24.859,7.5    c-6.312,5-11.375,11.531-15.094,19.625c-3.688,8.094-6.344,17.125-7.875,27.125c-1.516,9.969-2.375,19.781-2.688,29.5h1.266    c14.312-14.656,29.797-22.031,46.579-22.031c10.688,0,20.766,2.047,30.328,6.156c9.438,4.125,17.625,9.875,24.452,17.234    c6.97,7.281,12.359,16.141,16.375,26.391c3.97,10.297,5.906,21.422,5.906,33.422c0,11.22-1.844,21.906-5.391,31.892    c-3.531,10-8.656,18.625-15.25,26.094c-6.595,7.5-14.595,13.469-24.142,17.938c-9.422,4.328-20.094,6.531-31.938,6.531    c-12.656,0-24.141-2.562-34.469-7.938c-10.25-5.267-19.016-12.812-26.156-22.609c-7.172-9.922-12.703-21.891-16.688-35.953    c-4-14.047-5.969-30.062-5.969-48.016c0-25.609,1.969-47.392,5.969-65.484c4-18.031,9.719-32.641,17.156-43.844    c7.469-11.141,16.406-19.281,26.875-24.422c10.5-5.125,22.156-7.734,35.155-7.734c10.188,0,19.688,1.844,28.359,5.5    c8.688,3.719,16.156,8.609,22.312,14.766c6.141,6.203,11.203,13.234,14.953,21.141c3.594,7.953,5.733,16.062,6.358,24.25    L302.922,193.656L302.922,193.656z M259.141,355.453c14.828,0,25.906-5.172,33-15.219c7.234-10.219,10.781-22.734,10.781-37.734    c0-7.297-0.906-14.281-2.641-20.938c-1.828-6.578-4.625-12.453-8.359-17.578c-3.609-5.142-8.219-9.25-13.625-12.359    C272.906,248.5,266.672,247,259.5,247c-8.797,0-16.281,1.75-22.281,5.25c-6.094,3.531-11,8.016-14.75,13.484    c-3.656,5.391-6.344,11.358-7.844,17.797c-1.469,6.484-2.266,12.766-2.266,18.969c0,15.953,4.234,28.719,12.797,38.438    C233.719,350.516,245,355.453,259.141,355.453z"
         id="path9" /></g></g><g
     id="g11" /><g
     id="g13" /><g
     id="g15" /><g
     id="g17" /><g
     id="g19" /><g
     id="g21" /><g
     id="g23" /><g
     id="g25" /><g
     id="g27" /><g
     id="g29" /><g
     id="g31" /><g
     id="g33" /><g
     id="g35" /><g
     id="g37" /><g
     id="g39" /><path
     style="opacity:0.98999999;fill:#ffffff;fill-opacity:1;stroke:#ffffff;stroke-width:2.82033896;stroke-linecap:square;stroke-linejoin:bevel;stroke-miterlimit:4;stroke-dasharray:none;stroke-dashoffset:0;stroke-opacity:1"
     d="M 229.09168,469.17688 C 148.04403,458.77701 79.146568,402.52088 52.770007,325.20678 26.773731,249.00735 45.775049,164.80044 101.9661,107.18763 129.58523,78.869686 158.96709,60.920463 196.79822,49.255187 214.61401,43.761668 218.49658,43.376106 256,43.376106 c 37.50341,0 41.386,0.385562 59.20178,5.879081 37.71446,11.629298 67.0738,29.539324 94.83212,57.850273 83.00286,84.65533 80.37102,222.0176 -5.82255,303.89304 -35.24408,33.47844 -75.52067,52.40016 -124.29004,58.39078 -20.82594,2.55817 -29.5214,2.52184 -50.82963,-0.2124 z m 65.34778,-93.17306 c 27.02931,-13.81574 41.83173,-40.24761 41.83173,-74.69668 0,-38.17971 -18.59354,-66.84641 -51.29262,-79.08071 -22.58308,-8.44941 -45.92019,-4.83627 -65.57072,10.15191 l -7.42741,5.66517 1.53814,-15.60974 c 2.87948,-29.22217 11.66535,-48.58313 26.73139,-58.90654 17.02359,-11.66475 45.82723,-4.12385 56.45132,14.77915 2.67192,4.75404 4.85803,10.21926 4.85803,12.14494 0,2.9153 2.76335,3.50122 16.51263,3.50122 l 16.51263,0 -1.49717,-7.98061 c -7.67459,-40.90912 -50.26343,-66.95229 -92.00193,-56.25938 -7.56971,1.93927 -17.77967,6.2235 -22.6888,9.5205 -29.49028,19.80591 -44.12661,66.16796 -42.16527,133.56281 0.81731,28.08448 1.79618,35.44068 6.70495,50.3877 13.59406,41.39342 41.73011,62.81064 80.15623,61.01508 13.97599,-0.65308 19.33082,-2.05295 31.34687,-8.19482 z"
     id="path4173"
     inkscape:connector-curvature="0" /><path
     style="opacity:0.98999999;fill:#ffffff;fill-opacity:1;stroke:#ffffff;stroke-width:2.82033896;stroke-linecap:square;stroke-linejoin:bevel;stroke-miterlimit:4;stroke-dasharray:none;stroke-dashoffset:0;stroke-opacity:1"
     d="m 240.66009,350.38847 c -18.94895,-8.60642 -28.51105,-28.35063 -26.32993,-54.36707 2.48607,-29.65381 19.56524,-47.83157 44.94082,-47.83157 25.13941,0 41.9243,21.86054 41.97637,54.66977 0.0226,14.23966 -0.91252,18.5354 -6.33923,29.12111 -4.93718,9.63079 -8.51151,13.55038 -15.92731,17.46583 -11.68944,6.17186 -26.02978,6.52435 -38.32072,0.94193 z"
     id="path4152"
     inkscape:connector-curvature="0" /></svg>