<?xml version="1.0" encoding="UTF-8" standalone="no"?>
<!-- Generator: Adobe Illustrator 16.0.0, SVG Export Plug-In . SVG Version: 6.00 Build 0)  -->

<svg
   xmlns:dc="http://purl.org/dc/elements/1.1/"
   xmlns:cc="http://creativecommons.org/ns#"
   xmlns:rdf="http://www.w3.org/1999/02/22-rdf-syntax-ns#"
   xmlns:svg="http://www.w3.org/2000/svg"
   xmlns="http://www.w3.org/2000/svg"
   xmlns:sodipodi="http://sodipodi.sourceforge.net/DTD/sodipodi-0.dtd"
   xmlns:inkscape="http://www.inkscape.org/namespaces/inkscape"
   version="1.1"
   id="Capa_1"
   x="0px"
   y="0px"
   width="512px"
   height="512px"
   viewBox="0 0 512 512"
   style="enable-background:new 0 0 512 512;"
   xml:space="preserve"
   inkscape:version="0.91 r13725"
   sodipodi:docname="three.svg"><metadata
     id="metadata45"><rdf:RDF><cc:Work
         rdf:about=""><dc:format>image/svg+xml</dc:format><dc:type
           rdf:resource="http://purl.org/dc/dcmitype/StillImage" /></cc:Work></rdf:RDF></metadata><defs
     id="defs43" /><sodipodi:namedview
     pagecolor="#ffffff"
     bordercolor="#666666"
     borderopacity="1"
     objecttolerance="10"
     gridtolerance="10"
     guidetolerance="10"
     inkscape:pageopacity="0"
     inkscape:pageshadow="2"
     inkscape:window-width="1366"
     inkscape:window-height="746"
     id="namedview41"
     showgrid="false"
     inkscape:zoom="0.4609375"
     inkscape:cx="256"
     inkscape:cy="256"
     inkscape:window-x="-8"
     inkscape:window-y="-8"
     inkscape:window-maximized="1"
     inkscape:current-layer="Capa_1" /><g
     id="g3"><path
       d="M256,0C114.609,0,0,114.609,0,256c0,141.391,114.609,256,256,256c141.391,0,256-114.609,256-256   C512,114.609,397.391,0,256,0z M256,472c-119.297,0-216-96.703-216-216S136.703,40,256,40s216,96.703,216,216S375.297,472,256,472z   "
       id="path5" /><g
       id="g7"><path
         d="M182.828,204.781c2.688-24.062,9.672-42.922,20.938-56.5C215.031,134.766,232.812,128,257.25,128    c21.156,0,37.938,5.969,50.25,17.875s18.469,27.75,18.469,47.469c0,14.125-2.562,25.375-7.781,33.781    c-5.233,8.375-13.453,14.906-24.78,19.625c5.422,1.75,10.641,4.25,15.688,7.5c5.188,3.25,9.734,7.406,13.672,12.594    c4.062,5.156,7.267,11.234,9.734,18.344c2.344,7.047,3.5,15.359,3.5,25.095c0,12.172-2.078,22.688-6.234,31.75    c-4.28,9.188-9.983,16.905-17.077,22.983c-7.234,6.219-15.642,10.938-25.047,14.188c-9.531,3.233-19.673,4.797-30.392,4.797    c-21.969,0-40.156-6.983-54.5-20.983c-14.344-13.984-23.25-34.548-26.75-62h32.562c3.188,20,8.734,34.047,16.5,42.202    c7.75,8.031,18.531,12.062,32.188,12.062c6.156,0,12.094-1.017,17.703-3.048c5.641-2.016,10.516-5.016,14.812-9.016    c4.312-4,7.734-8.734,10.392-14.281c2.5-5.688,3.702-11.905,3.702-18.655c0-13.517-4.125-25.017-12.5-34.438    c-8.25-9.375-19.641-14.094-34.108-14.094h-18.516v-28.719h18.516c6.719,0,12.422-1.062,17.108-3.281    c4.656-2.234,8.484-5.094,11.453-8.625c2.953-3.5,5.031-7.5,6.22-11.875c1.297-4.469,1.797-8.875,1.797-13.25    c0-12.375-3.406-22.109-10.25-29.156c-6.828-7.078-15.922-10.594-27.188-10.594c-6.953,0-12.797,1.281-17.656,3.984    c-4.812,2.641-8.875,6.156-12.078,10.547c-3.188,4.453-5.719,9.594-7.625,15.484c-1.859,5.875-3.219,12.109-4,18.516H182.828z"
         id="path9" /></g></g><g
     id="g11" /><g
     id="g13" /><g
     id="g15" /><g
     id="g17" /><g
     id="g19" /><g
     id="g21" /><g
     id="g23" /><g
     id="g25" /><g
     id="g27" /><g
     id="g29" /><g
     id="g31" /><g
     id="g33" /><g
     id="g35" /><g
     id="g37" /><g
     id="g39" /><path
     style="opacity:0.98999999;fill:#ffffff;fill-opacity:1;stroke:#ffffff;stroke-width:2.82033896;stroke-linecap:square;stroke-linejoin:bevel;stroke-miterlimit:4;stroke-dasharray:none;stroke-dashoffset:0;stroke-opacity:1"
     d="M 229.09168,469.17688 C 148.04403,458.77701 79.146568,402.52088 52.770007,325.20678 26.773731,249.00735 45.775049,164.80044 101.9661,107.18763 129.58523,78.869686 158.96709,60.920463 196.79822,49.255187 214.61401,43.761668 218.49658,43.376106 256,43.376106 c 37.50341,0 41.386,0.385562 59.20178,5.879081 37.71446,11.629298 67.0738,29.539324 94.83212,57.850273 83.00286,84.65533 80.37102,222.0176 -5.82255,303.89304 -35.24408,33.47844 -75.52067,52.40016 -124.29004,58.39078 -20.82594,2.55817 -29.5214,2.52184 -50.82963,-0.2124 z m 51.85747,-87.25111 c 22.0851,-5.88505 38.90751,-18.79615 48.28169,-37.05589 6.5255,-12.71086 9.17011,-41.71377 5.15901,-56.57782 -3.94768,-14.62904 -14.1824,-28.429 -26.15609,-35.26745 l -10.91857,-6.23587 9.38865,-6.61774 c 14.08444,-9.92762 19.65513,-23.07084 19.58951,-46.21846 -0.0789,-27.82346 -9.29441,-45.38994 -30.15776,-57.48628 -17.14165,-9.93854 -45.48111,-12.02104 -68.74326,-5.05153 -18.52192,5.5493 -34.93334,26.37516 -41.91888,53.19446 -5.38743,20.68374 -5.72537,20.19081 13.84249,20.19081 l 17.07866,0 1.41949,-8.87705 c 3.05055,-19.07708 16.07338,-35.18632 30.65655,-37.92214 26.16629,-4.90882 46.53523,14.7402 43.70522,42.16046 -2.1447,20.78012 -13.19324,30.08959 -38.19846,32.18594 l -15.33333,1.28549 0,14.87179 0,14.87178 15.0452,0 c 17.4041,0 24.83359,2.32125 33.42467,10.44311 19.71874,18.64175 20.90643,47.76342 2.71919,66.67466 -14.81743,15.40731 -40.13418,18.28805 -57.82632,6.57993 -9.15272,-6.05698 -18.41281,-22.88169 -20.6923,-37.596 l -1.42839,-9.22034 -17.07865,0 c -16.41438,0 -17.07866,0.19564 -17.07866,5.02996 0,15.47186 13.3797,45.2311 26.01798,57.86937 19.12513,19.12513 50.21604,26.49283 79.20236,18.76881 z"
     id="path4173"
     inkscape:connector-curvature="0" /></svg>