<?xml version="1.0" encoding="UTF-8" standalone="no"?>
<!-- Generator: Adobe Illustrator 16.0.0, SVG Export Plug-In . SVG Version: 6.00 Build 0)  -->

<svg
   xmlns:dc="http://purl.org/dc/elements/1.1/"
   xmlns:cc="http://creativecommons.org/ns#"
   xmlns:rdf="http://www.w3.org/1999/02/22-rdf-syntax-ns#"
   xmlns:svg="http://www.w3.org/2000/svg"
   xmlns="http://www.w3.org/2000/svg"
   xmlns:sodipodi="http://sodipodi.sourceforge.net/DTD/sodipodi-0.dtd"
   xmlns:inkscape="http://www.inkscape.org/namespaces/inkscape"
   version="1.1"
   id="Capa_1"
   x="0px"
   y="0px"
   width="512px"
   height="512px"
   viewBox="0 0 512 512"
   style="enable-background:new 0 0 512 512;"
   xml:space="preserve"
   inkscape:version="0.91 r13725"
   sodipodi:docname="two.svg"><metadata
     id="metadata45"><rdf:RDF><cc:Work
         rdf:about=""><dc:format>image/svg+xml</dc:format><dc:type
           rdf:resource="http://purl.org/dc/dcmitype/StillImage" /></cc:Work></rdf:RDF></metadata><defs
     id="defs43" /><sodipodi:namedview
     pagecolor="#ffffff"
     bordercolor="#666666"
     borderopacity="1"
     objecttolerance="10"
     gridtolerance="10"
     guidetolerance="10"
     inkscape:pageopacity="0"
     inkscape:pageshadow="2"
     inkscape:window-width="1366"
     inkscape:window-height="746"
     id="namedview41"
     showgrid="false"
     inkscape:zoom="0.4609375"
     inkscape:cx="256"
     inkscape:cy="256"
     inkscape:window-x="-8"
     inkscape:window-y="-8"
     inkscape:window-maximized="1"
     inkscape:current-layer="Capa_1" /><g
     id="g3"><path
       d="M256,0C114.609,0,0,114.609,0,256c0,141.391,114.609,256,256,256c141.391,0,256-114.609,256-256   C512,114.609,397.391,0,256,0z M256,472c-119.297,0-216-96.703-216-216S136.703,40,256,40s216,96.703,216,216S375.297,472,256,472z   "
       id="path5" /><g
       id="g7"><path
         d="M176,209.75c2.531-24.406,10.969-44.141,25.375-59.219c14.344-15.031,34-22.531,58.859-22.531    c12.233,0,23.172,2.141,32.594,6.484c9.422,4.297,17.375,10.141,23.719,17.484c6.328,7.281,11.219,15.547,14.516,24.797    c3.281,9.266,4.938,18.844,4.938,28.703c0,8.625-0.984,16.391-3.062,23.266c-2.095,6.875-4.953,12.984-8.688,18.297    c-3.75,5.438-8.031,10.375-13.109,15c-4.922,4.688-10.327,9.078-16.188,13.234c-10.845,8.405-22.125,16.452-33.672,24.202    c-11.594,7.75-22.719,16.531-33.375,26.328c-3.875,3.672-7.062,7.438-9.594,11.453c-2.5,4.017-4.594,9.031-6.266,15.017h117.375    V384H178.531v-24.203c0-10.047,3.188-20,9.625-29.578c6.438-9.734,14.438-19.188,24.125-28.219    c9.625-9.031,20.188-17.828,31.781-26.359c11.609-8.516,22.531-16.766,32.891-24.781c7.844-5.984,14.031-12.359,18.672-19.234    c4.516-6.859,6.859-15.625,6.859-26.344c0-15.172-3.812-27.031-11.734-35.531c-7.781-8.484-17.938-12.734-30.516-12.734    c-15.359,0-27.531,4.703-36.453,14.109c-9,9.375-13.438,22.25-13.438,38.625L176,209.75L176,209.75z"
         id="path9" /></g></g><g
     id="g11" /><g
     id="g13" /><g
     id="g15" /><g
     id="g17" /><g
     id="g19" /><g
     id="g21" /><g
     id="g23" /><g
     id="g25" /><g
     id="g27" /><g
     id="g29" /><g
     id="g31" /><g
     id="g33" /><g
     id="g35" /><g
     id="g37" /><g
     id="g39" /><path
     style="opacity:0.98999999;fill:#ffffff;fill-opacity:1;stroke:#ffffff;stroke-width:2.82033896;stroke-linecap:square;stroke-linejoin:bevel;stroke-miterlimit:4;stroke-dasharray:none;stroke-dashoffset:0;stroke-opacity:1"
     d="M 229.09168,469.17688 C 148.04403,458.77701 79.146568,402.52088 52.770007,325.20678 26.773731,249.00735 45.775049,164.80044 101.9661,107.18763 129.58523,78.869686 158.96709,60.920463 196.79822,49.255187 214.61401,43.761668 218.49658,43.376106 256,43.376106 c 37.50341,0 41.386,0.385562 59.20178,5.879081 37.71446,11.629298 67.0738,29.539324 94.83212,57.850273 83.00286,84.65533 80.37102,222.0176 -5.82255,303.89304 -35.24408,33.47844 -75.52067,52.40016 -124.29004,58.39078 -20.82594,2.55817 -29.5214,2.52184 -50.82963,-0.2124 z m 100.67103,-100.58027 0,-16.27119 -58.46341,0 -58.46342,0 2.45779,-7.05084 c 3.69656,-10.60463 20.69447,-26.11274 58.88628,-53.72514 38.84843,-28.08715 51.19668,-40.43795 57.63564,-57.64762 5.4733,-14.6287 5.94743,-39.60957 1.03472,-54.51753 -8.68098,-26.34314 -30.04776,-45.57434 -56.09593,-50.48928 -46.46069,-8.76651 -85.85719,16.05936 -98.07646,61.8033 -5.485,20.53357 -5.43182,20.61016 14.30852,20.61016 l 17.25763,0 1.36574,-8.13559 c 3.59893,-21.43851 10.54477,-32.2877 25.58281,-39.95954 11.04355,-5.634 32.20306,-6.13202 42.14295,-0.99189 17.56095,9.08112 26.39913,35.04821 19.8978,58.46092 -3.28789,11.84038 -13.65585,22.28883 -47.97319,48.34564 -37.43801,28.42631 -57.97394,48.85747 -66.73959,66.39911 -5.79474,11.59628 -6.62228,15.51347 -6.62228,31.34651 l 0,18.09417 75.9322,0 75.9322,0 0,-16.27119 z"
     id="path4173"
     inkscape:connector-curvature="0" /></svg>